<?xml version="1.0" encoding="UTF-8" standalone="no"?>
<!-- Created with Inkscape (http://www.inkscape.org/) -->

<svg
   width="32.590664mm"
   height="18.040791mm"
   viewBox="0 0 32.590664 18.040791"
   version="1.1"
   id="svg1"
   inkscape:version="1.3 (0e150ed6c4, 2023-07-21)"
   sodipodi:docname="easy.svg"
   xmlns:inkscape="http://www.inkscape.org/namespaces/inkscape"
   xmlns:sodipodi="http://sodipodi.sourceforge.net/DTD/sodipodi-0.dtd"
   xmlns="http://www.w3.org/2000/svg"
   xmlns:svg="http://www.w3.org/2000/svg">
  <sodipodi:namedview
     id="namedview1"
     pagecolor="#505050"
     bordercolor="#ffffff"
     borderopacity="1"
     inkscape:showpageshadow="0"
     inkscape:pageopacity="0"
     inkscape:pagecheckerboard="1"
     inkscape:deskcolor="#505050"
     inkscape:document-units="mm"
     inkscape:zoom="0.74564394"
     inkscape:cx="-273.58903"
     inkscape:cy="-118.68936"
     inkscape:window-width="1920"
     inkscape:window-height="1051"
     inkscape:window-x="-9"
     inkscape:window-y="-9"
     inkscape:window-maximized="1"
     inkscape:current-layer="layer1" />
  <defs
     id="defs1" />
  <g
     inkscape:label="Layer 1"
     inkscape:groupmode="layer"
     id="layer1"
     transform="translate(-116.0957,-154.69779)">
    <path
       style="fill:#c90000;fill-opacity:1;stroke-width:0"
       id="path3"
       d="m 127.84977,83.112315 c -0.27804,0.02723 -0.55591,0.0564 -0.83413,0.0817 -1.39409,0.126762 -1.69055,0.103642 -3.1666,0.412681 -2.06337,0.432001 -3.97206,1.127498 -5.94561,1.843236 -0.51736,0.304008 -1.07549,0.547417 -1.55208,0.912026 -0.4501,0.34434 -0.85517,0.753224 -1.20618,1.198137 -0.65268,0.827286 -1.14568,1.77756 -0.99328,2.88123 0.20148,1.459164 1.02772,2.167882 1.89845,3.264572 0.5292,0.461254 1.03214,0.954495 1.5876,1.383766 0.53087,0.410263 1.09065,0.784235 1.66546,1.130255 2.09475,1.260983 4.48531,2.754169 6.89736,3.51873 0.39267,0.124468 0.79835,0.203386 1.19753,0.305072 0.43501,-10e-4 0.8732,0.0496 1.30504,-0.003 0.50077,-0.06084 0.99543,-0.18107 1.47586,-0.334933 1.21249,-0.388318 2.15856,-0.841034 3.04282,-1.810046 0.90438,-0.991042 1.68934,-2.644556 2.30882,-3.810461 0,0 -2.47071,-1.414346 -2.47071,-1.414346 v 0 c -0.78809,1.495502 -1.12036,2.428341 -2.38103,3.612063 -1.24206,1.166236 -2.97843,1.728002 -4.65125,1.800574 -0.43489,0.01886 -0.86864,-0.05842 -1.30296,-0.08764 -1.05099,-0.276321 -1.27889,-0.300615 -2.30309,-0.718625 -0.45904,-0.187354 -0.86096,-0.626864 -1.35649,-0.610203 -0.38546,0.01297 1.29617,0.836483 0.97495,0.62303 -2.45483,-1.631248 -0.99966,-0.513699 -3.25506,-2.416259 -0.80122,-0.988465 -1.55783,-1.631363 -1.77977,-2.942476 -0.26368,-1.557671 0.80232,-2.983537 1.93189,-3.899371 0.44291,-0.359101 0.96196,-0.612463 1.44294,-0.918692 1.55534,-0.640921 2.12221,-0.936702 3.80415,-1.356363 2.20883,-0.551124 4.50648,-0.724447 6.75869,-0.363426 z" />
    <path
       style="fill:#c90000;fill-opacity:1;stroke-width:0"
       id="path4"
       d="m 123.63678,95.234775 c 0.18336,-0.08596 0.36974,-0.165743 0.55008,-0.257876 0.54301,-0.277419 1.41624,-0.774682 1.92004,-1.056379 1.08438,-0.606311 2.16834,-1.210542 3.26538,-1.793663 0.28698,-0.148333 0.57397,-0.296664 0.86095,-0.444995 0,0 -2.93837,-1.908839 -2.93837,-1.908839 v 0 c -0.2589,0.165722 -0.51779,0.331447 -0.77669,0.497168 -1.90415,1.151171 -3.84291,2.330932 -6.03526,2.837138 z" />
    <path
       style="fill:#c90000;fill-opacity:1;stroke-width:0"
       id="path5"
       d="m 120.29686,88.354611 c 0.0848,0.08172 0.16495,0.168497 0.25431,0.24517 0.23707,0.203404 1.01662,0.804786 1.20465,0.955474 0.36033,0.288764 0.72303,0.574789 1.07523,0.873414 0.98276,0.833289 1.3852,1.230818 2.32659,2.110734 1.04074,0.976054 2.04243,1.992255 3.05498,2.997171 0,0 3.322,1.362274 3.322,1.362274 v 0 c -1.16577,-1.027869 -2.29915,-2.090976 -3.4356,-3.151053 -1.00545,-0.958067 -2.0024,-1.929156 -3.03352,-2.85987 -1.01148,-0.91299 -0.18083,-0.129969 -0.95916,-0.822124 -0.0585,-0.05202 -0.11204,-0.109363 -0.16806,-0.164045 z" />
    <path
       style="fill:#c90000;fill-opacity:1;stroke-width:0"
       id="path15"
       d="m 157.12209,86.125753 c -1.20854,-0.660583 -0.67074,-0.3697 2.44549,1.420354 0.24263,0.139375 -0.48362,-0.281585 -0.72484,-0.423396 -0.2559,-0.150448 -0.50977,-0.304374 -0.76652,-0.453374 -3.89735,-2.261725 -2.60679,-1.557796 -4.57862,-2.619582 -0.72559,-0.331785 -1.53331,-0.686506 -2.35084,-0.679934 -0.41696,0.0034 -0.75593,0.117232 -1.15788,0.218551 -0.69811,0.351012 -0.9926,0.467577 -1.6533,0.945076 -1.07318,0.775602 -2.06906,1.775082 -2.93569,2.770926 -0.33813,0.388543 -0.64849,0.800401 -0.97274,1.200602 -0.32234,0.456774 -0.65083,0.909264 -0.96702,1.370322 -0.10053,0.146595 -1.76767,2.652006 -1.89561,2.845644 -0.42071,0.636733 -1.07396,1.623568 -1.47744,2.298168 -0.17889,0.299106 -0.34221,0.607253 -0.51331,0.910879 -0.38,0.762994 -0.81284,1.675595 -0.511,2.547334 0.13906,0.401611 0.29685,0.500419 0.58351,0.801359 1.50828,1.098068 1.00437,0.758818 4.22713,2.402348 0.18242,0.093 0.39586,0.10533 0.59552,0.15082 0.64242,0.14638 1.28075,0.2234 1.93586,0.28296 0.69142,0.0468 1.38483,0.0212 2.0765,-0.003 0.20445,-0.007 0.40947,-0.007 0.61322,-0.0253 0.53876,-0.0485 0.81673,-0.1258 1.35656,-0.24035 2.17017,-0.6244 4.36747,-1.14095 6.56757,-1.64596 0.65227,-0.17701 1.09231,-0.259645 1.69681,-0.563848 0.64657,-0.325366 1.43905,-0.914259 1.89956,-1.479158 0.15934,-0.195458 0.27901,-0.42015 0.41851,-0.630227 0.10312,-0.228468 0.22501,-0.449363 0.30937,-0.685403 0.44605,-1.248063 0.47148,-2.624592 0.54167,-3.932536 0.0138,-0.790054 0.12799,-1.600277 -0.0153,-2.386053 -0.11239,-0.616227 -0.22879,-0.814025 -0.46599,-1.39946 -0.3495,-0.719 -0.73834,-1.45783 -1.33622,-2.006539 -0.10272,-0.09427 -0.20889,-0.18769 -0.32947,-0.257678 -1.20896,-0.701659 -2.43693,-1.370047 -3.65539,-2.055072 -0.12127,-0.02838 -0.24253,-0.05677 -0.3638,-0.08516 0,0 3.06166,2.361904 3.06166,2.361904 v 0 c 0.10798,0.03945 0.21597,0.07889 0.32395,0.118335 -0.9821,-0.579779 -1.96638,-1.155896 -2.94632,-1.739337 -0.1221,-0.07269 0.25564,0.12641 0.37266,0.207018 0.13302,0.09162 0.25871,0.194879 0.37441,0.307576 0.46721,0.455094 0.82491,1.011928 1.11479,1.591783 0.2356,0.534877 0.34986,0.712949 0.46566,1.277858 0.15878,0.774542 0.0285,1.579134 0.0865,2.361285 -0.031,1.504442 -0.078,3.060134 -0.75872,4.435205 -0.12623,0.190336 -0.23507,0.393428 -0.37869,0.571011 -0.86888,1.074348 -2.09756,1.578697 -3.39061,1.933469 -2.20386,0.565298 -4.40321,1.159176 -6.64346,1.566407 -1.32306,0.197191 -2.6646,0.29467 -4.00066,0.169034 -0.64776,-0.08428 -1.28927,-0.171677 -1.91916,-0.35207 -0.19461,-0.05573 -0.74439,-0.303916 -0.5766,-0.190664 0.80946,0.546354 3.96732,2.35227 2.27674,1.38322 -0.23036,-0.17474 -0.50714,-0.34845 -0.66541,-0.60354 -0.46121,-0.743332 -0.083,-1.673181 0.19783,-2.394982 0.14559,-0.311246 0.28185,-0.627026 0.43677,-0.933734 1.16853,-2.313455 2.64723,-4.464534 4.21883,-6.518748 0.32855,-0.387533 0.64275,-0.787707 0.98567,-1.162592 1.11172,-1.21538 2.40295,-2.409952 3.92592,-3.08682 0.2577,-0.114533 0.53253,-0.185793 0.7988,-0.278688 0.46774,-0.06877 0.66446,-0.127524 1.12093,-0.09289 0.77826,0.05905 1.50133,0.391637 2.19069,0.730539 1.24438,0.678299 1.72459,0.947385 -1.74301,-1.031216 -0.24984,-0.142555 0.49466,0.293714 0.74082,0.442515 1.58304,0.956916 3.16651,1.915832 4.799,2.786933 z" />
    <path
       style="fill:#c90000;fill-opacity:1;stroke-width:0"
       id="path16"
       d="m 150.07634,92.911995 c 1.10517,0.06161 2.19517,0.249891 3.27345,0.491553 0.87267,0.181655 1.75435,0.311823 2.63121,0.469895 0.37386,0.04232 0.73851,0.117293 1.10831,0.185701 0,0 -3.1008,-2.342555 -3.1008,-2.342555 v 0 c -0.36884,-0.07111 -0.73981,-0.126212 -1.11197,-0.177157 -0.85488,-0.127299 -1.7128,-0.239379 -2.55627,-0.432652 -1.12327,-0.211548 -2.25619,-0.356764 -3.38321,-0.544375 z" />
    <path
       style="fill:#c90000;fill-opacity:1;stroke-width:0"
       id="path17"
       d="m 151.272,87.421658 c -0.4517,0.883227 -0.88398,1.781601 -1.17851,2.731767 -0.0868,0.280207 -0.15518,0.565828 -0.23277,0.848739 -0.28956,1.112906 -0.56093,2.23158 -0.77533,3.361589 0,0 3.38014,1.785144 3.38014,1.785144 v 0 c 0.12136,-1.142204 0.30427,-2.27865 0.62472,-3.383952 0.36191,-1.166067 0.77364,-2.346738 1.55542,-3.306665 z" />
    <path
       style="fill:#c90000;fill-opacity:1;stroke-width:0"
       id="path18"
       d="m 184.00659,84.083926 c -1.34454,0.39855 -2.59244,1.066057 -3.78023,1.801485 -0.55959,0.346474 -1.11514,0.70119 -1.64839,1.086971 -0.56355,0.407697 -1.09272,0.860899 -1.63908,1.291347 -1.30612,1.205778 -1.66899,1.463191 -2.80109,2.805208 -0.3757,0.445365 -0.75293,0.893916 -1.06602,1.38531 -0.53349,0.837293 -1.06059,2.09056 -1.3858,3.033911 -0.14658,0.425175 -0.25025,0.863949 -0.37537,1.295924 -0.0182,0.372499 -0.11382,0.749276 -0.0546,1.117497 0.12608,0.784579 0.58488,1.287055 1.26459,1.666991 1.41822,0.79275 2.84399,1.59131 4.35391,2.19128 0.6471,0.25713 3.167,0.25089 3.72684,0.26464 1.85466,0.009 3.70983,-0.0381 5.56207,-0.13298 0.92387,-0.0473 1.41753,-0.0745 2.30249,-0.19534 0.272,-0.0371 0.54169,-0.0896 0.81253,-0.13437 0.23389,-0.11614 0.49859,-0.18427 0.70168,-0.34843 0.48726,-0.39383 0.75726,-0.99924 0.96484,-1.565533 0.34282,-0.935271 0.48528,-1.929636 0.63078,-2.908829 0.0445,-0.570961 0.12545,-1.43486 0.11352,-2.004243 -0.0205,-0.978551 -0.16838,-2.000988 -0.45878,-2.937806 -0.0722,-0.232926 -0.17633,-0.454734 -0.26449,-0.682101 -0.10642,-0.175091 -0.19617,-0.361466 -0.31925,-0.525275 -0.84957,-1.130689 -4.00071,-2.501363 -4.07644,-2.542204 -0.15764,-0.08501 -0.34451,-0.102095 -0.52155,-0.129143 -0.39885,-0.06094 -0.70123,-0.02873 -1.10051,-0.01172 -0.16585,0.01463 -0.3317,0.02926 -0.49755,0.04389 0,0 3.10833,2.22104 3.10833,2.22104 v 0 c 0.15576,-0.01082 0.31151,-0.02164 0.46727,-0.03247 0.42979,0.01209 0.61205,-0.0087 1.032,0.107971 0.16486,0.04582 0.62338,0.275778 0.47958,0.183049 -0.908,-0.585509 -1.85334,-1.110969 -2.78,-1.666451 0.14298,0.107831 0.30093,0.198268 0.42895,0.323498 0.14674,0.143536 0.25962,0.318021 0.38942,0.47703 0.11201,0.218782 0.24376,0.428533 0.33601,0.656344 0.36086,0.891106 0.53805,1.898536 0.55675,2.856556 0.009,0.437364 -0.0884,1.514959 -0.12423,1.960702 -0.11552,0.950029 -0.22459,1.908821 -0.57997,2.807618 -0.19305,0.488255 -0.45091,0.995305 -0.89305,1.313051 -0.1871,0.134458 -0.4208,0.187804 -0.6312,0.281707 -0.68248,0.146105 -0.94905,0.214249 -1.67032,0.316793 -2.17524,0.309256 -4.38249,0.387976 -6.57667,0.353966 -0.69762,-0.0487 -1.39917,-0.0577 -2.09288,-0.146112 -0.59785,-0.07621 -1.74769,-0.948928 -1.77448,-0.346839 -0.0318,0.716011 1.18971,0.805231 1.7333,1.272341 0.26847,0.2307 -0.64885,-0.31243 -0.90298,-0.55885 -0.6614,-0.641342 -0.5127,-1.020863 -0.56558,-1.881066 0.2624,-1.23164 0.27599,-1.572519 0.80081,-2.782858 0.98735,-2.277052 2.63462,-4.062545 4.47846,-5.681353 0.54982,-0.415039 1.07594,-0.863497 1.64946,-1.245118 0.55479,-0.36916 1.13892,-0.694024 1.72929,-1.003113 1.29894,-0.680061 2.69849,-1.254291 4.1693,-1.394634 z" />
    <path
       style="fill:#c90000;fill-opacity:1;stroke-width:0"
       id="path19"
       d="m 184.54111,92.776867 c -0.0958,0.03512 -0.19323,0.06598 -0.28734,0.10536 -0.80711,0.337732 -0.63685,0.317738 -1.62525,0.703508 -1.1692,0.456338 -2.37661,0.814102 -3.57237,1.192289 -1.94908,0.601232 -3.93313,1.069044 -5.9198,1.525458 0,0 3.02033,2.075577 3.02033,2.075577 v 0 c 1.9296,-0.599953 3.89286,-1.069962 5.84122,-1.603158 1.91636,-0.652994 3.83236,-1.335794 5.80947,-1.782905 z" />
    <path
       style="fill:#c90000;fill-opacity:1;stroke-width:0"
       id="path20"
       d="m 177.64468,89.784022 c 0.0143,0.184518 0.0235,0.417229 0.0923,0.584409 0.20194,0.490202 0.54028,0.913429 0.87909,1.312003 0.27277,0.320873 1.66187,1.809855 1.87173,2.035987 1.04094,1.123923 2.10597,2.225119 3.1662,3.330755 0,0 3.20891,1.333211 3.20891,1.333211 v 0 c -1.08558,-1.087601 -2.17133,-2.176044 -3.19165,-3.326124 -0.1669,-0.190701 -1.43055,-1.629572 -1.67177,-1.922 -0.26497,-0.321217 -0.78505,-0.892013 -0.84213,-1.353396 -0.008,-0.06527 0.011,-0.13107 0.0165,-0.196604 z" />
    <path
       style="fill:#f8ff5c;fill-opacity:1;stroke-width:0"
       id="path21"
       d="m 136.71259,122.34692 c -0.36679,-0.87222 -0.8631,-1.74426 -1.60271,-2.359 -0.29128,-0.24211 -0.60845,-0.45538 -0.9403,-0.63798 -1.40628,-0.77383 -2.84584,-1.4856 -4.26876,-2.22841 -0.49459,-0.0916 -0.98427,-0.21556 -1.48377,-0.27481 -2.33501,-0.27694 -4.76649,0.0828 -6.83667,1.2403 -0.56063,0.31347 -1.05991,0.72585 -1.58986,1.08877 -1.50239,1.30828 -2.86459,2.7755 -3.98175,4.42874 -0.58291,0.86262 -1.19363,1.82529 -1.33551,2.89214 -0.0609,0.45758 0.0606,0.92124 0.091,1.38185 0.24291,0.43513 0.40296,0.92828 0.72872,1.3054 0.41683,0.48255 0.92348,0.89271 1.46325,1.23219 1.56344,0.98333 3.17447,1.89537 4.82555,2.72314 0.81053,0.40636 1.6854,0.67056 2.54116,0.97016 2.034,0.71208 3.28331,1.02943 5.34561,1.60944 2.07175,0.55107 4.17163,1.01624 6.30254,1.26965 0.75613,0.0899 1.69406,0.28204 2.41557,-0.16451 0.27636,-0.17104 0.41793,-0.49784 0.62689,-0.74676 0.0654,-0.36899 0.20404,-0.73233 0.19608,-1.10698 -0.022,-1.03641 -0.46252,-2.07522 -0.90961,-2.97848 -0.51536,-1.04118 -1.16139,-1.96819 -1.79514,-2.9357 0,0 -3.10313,-1.35585 -3.10313,-1.35585 v 0 c 1.09574,1.58111 2.56922,3.55791 2.61196,5.57148 0.007,0.3088 -0.10423,0.60889 -0.15635,0.91333 -0.15605,0.1949 -0.25689,0.45164 -0.46816,0.58469 -0.59954,0.3776 -1.48529,0.25779 -2.1127,0.20728 -2.02387,-0.16295 -4.01581,-0.58485 -5.98048,-1.08277 -2.01072,-0.55911 -3.32901,-0.88127 -5.30239,-1.61619 -0.89534,-0.33344 -1.73638,-0.81009 -2.64672,-1.10007 -0.26678,-0.085 0.90318,0.66016 0.69125,0.47718 -1.97134,-1.70208 -0.8719,-0.30456 -2.13652,-2.22143 -0.0682,-0.42865 -0.23192,-0.85277 -0.20469,-1.28596 0.0638,-1.01452 0.64779,-2.03193 1.16362,-2.85771 1.04148,-1.66729 2.35448,-3.12612 3.90243,-4.3385 1.34717,-0.86774 1.70908,-1.23138 3.2385,-1.71352 1.65205,-0.52079 3.44488,-0.60237 5.14755,-0.31616 0.51237,0.0861 1.00892,0.24864 1.51339,0.37296 -0.6143,-0.4158 -1.25186,-0.79917 -1.84291,-1.24741 -0.27874,-0.21139 0.62268,0.32552 0.9031,0.53469 0.58114,0.43347 1.00462,1.05965 1.3117,1.70583 0.0549,0.11544 0.094,0.23771 0.141,0.35656 z" />
    <path
       style="fill:#f8ff5c;fill-opacity:1;stroke-width:0"
       id="path22"
       d="m 126.91009,121.58583 c -0.66935,1.02052 -1.27485,2.08089 -1.92677,3.11248 -0.43474,0.694 -0.91868,1.35819 -1.33349,2.06483 -0.16642,0.2835 -0.33829,0.62319 -0.49046,0.91639 -0.18759,0.38582 -0.3575,0.79006 -0.63202,1.12531 -0.0717,0.0876 -0.221,0.22659 -0.30172,0.3043 -0.28335,0.22178 -0.59688,0.40035 -0.91451,0.56739 0,0 3.26248,2.12606 3.26248,2.12606 v 0 c 0.33948,-0.1991 0.69044,-0.38884 0.98904,-0.64765 0.43879,-0.45049 0.71423,-0.99342 0.91773,-1.5873 0.4865,-1.04664 1.12423,-2.00989 1.71969,-2.99635 0.63898,-1.02587 1.25523,-2.07994 2.08223,-2.96995 z" />
    <path
       style="fill:#f8ff5c;fill-opacity:1;stroke-width:0"
       id="path23"
       d="m 118.93331,122.74356 c 0.0554,0.0692 0.10205,0.14662 0.16635,0.20773 0.46019,0.43732 1.18834,0.87822 1.72662,1.19107 3.91945,2.27797 2.79598,1.68941 5.12757,2.86108 1.72806,0.79587 3.54406,1.38123 5.28511,2.14553 0.3052,0.13398 0.60368,0.28276 0.90553,0.42414 0.94112,0.47514 1.8563,0.99877 2.78438,1.49839 0,0 -2.94733,-2.36969 -2.94733,-2.36969 v 0 c -0.89092,-0.4672 -1.77133,-0.95524 -2.68041,-1.38694 -0.30065,-0.13409 -0.59898,-0.2735 -0.90195,-0.40226 -1.72902,-0.73487 -3.52816,-1.30121 -5.21713,-2.13121 -1.00606,-0.52732 -3.10138,-1.64684 1.07273,0.69254 0.24003,0.13452 -0.46598,-0.29276 -0.69681,-0.4425 -0.28558,-0.18523 -0.57377,-0.36736 -0.84748,-0.56972 -0.0532,-0.0394 -0.0996,-0.0873 -0.14943,-0.13089 z" />
    <path
       style="fill:#f8ff5c;fill-opacity:1;stroke-width:0"
       id="path24"
       d="m 161.76179,117.85908 c -1.07347,0.0122 -2.14673,0.0311 -3.20762,0.21462 -0.3874,0.067 -0.77026,0.15808 -1.1554,0.23711 -1.51895,0.33361 -2.89518,0.55147 -4.20903,1.48072 -1.29743,0.91764 -2.46237,2.24272 -3.4415,3.46889 -0.52121,0.65273 -0.9847,1.34953 -1.47705,2.0243 -0.63548,1.08363 -1.5036,2.35717 -1.82488,3.61669 -0.12274,0.48121 -0.21604,0.99876 -0.11646,1.48529 0.24328,1.18867 1.20752,1.89794 2.18024,2.46176 1.51345,0.87725 3.1006,1.62068 4.65089,2.43102 1.73773,0.57852 3.5319,1.03426 5.36134,1.19804 0.46231,0.0414 0.92889,0.0787 1.39177,0.0443 1.00599,-0.0747 1.44385,-0.32082 2.36257,-0.67656 1.35677,-0.74562 2.66688,-1.62173 3.79804,-2.68592 0.60509,-0.56926 0.80496,-0.84351 1.33735,-1.47565 0.74362,-0.86636 1.46434,-1.75868 1.89978,-2.82544 0.21897,-0.53645 0.29718,-0.89628 0.44469,-1.44886 0.0764,-0.68305 0.18144,-0.8716 -0.10924,-1.5519 -0.42512,-0.99495 -1.34341,-1.77235 -2.26608,-2.28474 -1.40367,-0.77951 -2.84191,-1.49507 -4.26287,-2.24261 -1.63299,-0.50815 -3.32769,-0.74966 -5.0173,-0.97539 0,0 2.89814,2.15956 2.89814,2.15956 v 0 c 1.65184,0.17885 3.30437,0.41242 4.87371,0.98799 -0.60527,-0.40828 -1.2311,-0.78763 -1.8158,-1.22485 -0.30392,-0.22726 0.66607,0.36832 0.97151,0.59353 0.62925,0.46394 1.39378,1.24454 1.50118,2.07166 0.0298,0.22931 -0.0388,0.46084 -0.0582,0.69126 -0.1326,0.58212 -0.16801,0.83321 -0.38808,1.39858 -0.4042,1.03839 -1.08838,1.9239 -1.78891,2.77735 -0.20686,0.24583 -0.40546,0.49885 -0.62057,0.73748 -1.22876,1.36309 -2.69388,2.51535 -4.35134,3.30953 -0.89913,0.32538 -1.2662,0.52681 -2.2354,0.60059 -0.43165,0.0329 -0.86684,0.011 -1.29853,-0.0214 -1.77676,-0.13325 -3.51424,-0.56957 -5.18334,-1.18115 0.33595,0.27291 1.42173,0.94547 1.00786,0.81874 -0.54567,-0.1671 -1.01381,-0.55259 -1.42636,-0.94689 -0.33793,-0.323 -0.64087,-0.71842 -0.78218,-1.16402 -0.14601,-0.46042 -0.11964,-0.9709 -0.0462,-1.44831 0.21566,-1.40259 0.90978,-2.43002 1.56089,-3.6644 1.14765,-1.60261 1.68013,-2.53263 3.17598,-3.86011 0.57774,-0.5127 1.21034,-0.96921 1.87821,-1.35728 1.32952,-0.77254 2.86068,-0.99852 4.34076,-1.28154 0.39515,-0.0609 0.7882,-0.13736 1.18543,-0.18255 1.1365,-0.1293 2.30118,-0.10601 3.43261,0.0549 z" />
    <path
       style="fill:#f8ff5c;fill-opacity:1;stroke-width:0"
       id="path25"
       d="m 155.73777,123.9055 c 0.26931,2.2294 0.13562,4.48266 0.0274,6.71781 0,0 2.91791,1.50567 2.91791,1.50567 v 0 c 0.11752,-2.16334 0.2239,-4.32991 0.46974,-6.48342 z" />
    <path
       style="fill:#f8ff5c;fill-opacity:1;stroke-width:0"
       id="path26"
       d="m 152.9819,128.73815 c 0.53806,0.0185 0.75193,0.0147 1.33905,0.0993 2.28592,0.32963 4.53551,0.91932 6.77526,1.46775 2.23474,0.55958 4.44554,1.20859 6.66559,1.823 0,0 -2.79682,-2.14287 -2.79682,-2.14287 v 0 c -2.14678,-0.5205 -4.27993,-1.09314 -6.42201,-1.63246 -1.73906,-0.44327 -2.29924,-0.59347 -4.01687,-1.0032 -0.57565,-0.13732 -2.47657,-0.58187 -3.15139,-0.70849 -0.48636,-0.0913 -1.06097,-0.14887 -1.56124,-0.20505 z" />
    <path
       style="fill:#70ff53;fill-opacity:1;stroke-width:0"
       id="path27"
       d="m 127.53352,154.80212 c -0.0755,-0.0155 -0.14988,-0.0387 -0.22658,-0.0464 -0.15772,-0.0158 -0.31662,-0.016 -0.47493,-0.0239 -0.84788,-0.0423 -1.65348,-0.0827 -2.48986,0.12617 -0.38059,0.095 -0.74534,0.24492 -1.11801,0.36738 -1.92789,0.99418 -3.99631,2.11556 -5.37211,3.84703 -1.093,1.37555 -1.05569,1.71578 -1.62921,3.35802 -0.0419,0.61205 -0.13931,1.22281 -0.12585,1.83614 0.0337,1.53884 0.46151,3.2143 1.52707,4.3809 1.29831,1.42143 4.80864,2.79592 5.75017,3.27332 0.71339,0.11599 1.42257,0.26178 2.14018,0.34796 1.30209,0.15637 3.69968,0.28484 5.00574,0.34774 1.00004,0.0482 3.18781,0.14154 4.25094,0.11851 0.52341,-0.0113 1.04483,-0.0685 1.56724,-0.1028 0.39596,-0.0908 0.80885,-0.12618 1.18789,-0.2723 0.54524,-0.2102 1.24059,-0.71077 1.43674,-1.30657 0.31661,-0.96167 -0.0436,-1.88328 -0.35534,-2.77635 -0.18793,-0.53839 -0.43142,-1.05575 -0.64714,-1.58363 -0.51409,-1.22659 -1.10114,-2.41888 -1.70921,-3.60068 0,0 -3.27915,-1.46595 -3.27915,-1.46595 v 0 c 0.70713,1.18097 1.38884,2.37699 1.92199,3.64981 0.40498,1.01374 1.29384,2.76525 0.91708,3.91109 -0.16238,0.49388 -0.78406,0.95468 -1.22598,1.1462 -0.33369,0.14461 -0.69919,0.20042 -1.04879,0.30064 -0.47696,0.0552 -0.95169,0.13524 -1.43087,0.16553 -1.09655,0.0693 -3.01166,0.0401 -4.05768,-0.001 -1.62424,-0.0639 -3.46059,-0.1781 -5.06476,-0.44393 -0.75192,-0.12461 -1.48828,-0.32963 -2.23242,-0.49444 0.41586,0.33826 1.09516,0.50084 1.24759,1.01478 0.13931,0.46972 -0.84585,-0.51064 -1.19884,-0.8504 -1.13288,-1.09041 -1.64815,-2.69949 -1.74258,-4.23077 -0.0362,-0.58707 0.0412,-1.17565 0.0618,-1.76348 0.20025,-0.57307 0.33046,-1.17565 0.60075,-1.7192 1.02818,-2.06768 3.03248,-3.51479 5.05653,-4.49838 0.45088,-0.21912 0.92657,-0.38301 1.38985,-0.57452 0.37835,-0.0947 0.75051,-0.21898 1.13506,-0.28408 1.13508,-0.19216 2.2892,-0.012 3.40324,0.21195 z" />
    <path
       style="fill:#70ff53;fill-opacity:1;stroke-width:0"
       id="path28"
       d="m 126.98481,157.4193 c 0.11623,1.03571 0.15959,2.07886 0.22015,3.11869 0.0474,0.8142 0.11391,1.62752 0.14212,2.44261 0.0626,1.80902 0.0239,3.13221 -8e-4,4.92638 -0.0258,0.65047 -0.0516,1.30094 -0.0774,1.95142 0,0 2.90632,1.48361 2.90632,1.48361 v 0 c -0.0158,-0.6726 -0.0316,-1.3452 -0.0474,-2.01781 -0.0238,-1.74881 -0.0638,-3.17102 -8e-4,-4.92717 0.0275,-0.7669 0.0947,-1.53186 0.14212,-2.29778 0.0597,-0.96495 0.10032,-1.93423 0.22014,-2.89435 z" />
    <path
       style="fill:#70ff53;fill-opacity:1;stroke-width:0"
       id="path29"
       d="m 121.15994,165.37896 c 1.02157,0.23077 2.06179,0.36273 3.0963,0.51821 0.77212,0.11605 1.54067,0.25735 2.31542,0.35421 1.08068,0.13509 2.16626,0.22763 3.24939,0.34145 6.27584,0.62211 12.57462,0.94731 18.86532,1.3722 0,0 -2.30259,-1.68997 -2.30259,-1.68997 v 0 c -6.26472,-0.17529 -12.53498,-0.4678 -18.75057,-1.31671 -1.17532,-0.18849 -2.35425,-0.35572 -3.52596,-0.56547 -2.05134,-0.36721 -4.08161,-0.85216 -6.09028,-1.40415 z" />
  </g>
</svg>
