<?xml version="1.0" encoding="UTF-8" standalone="no"?>
<!-- Created with Inkscape (http://www.inkscape.org/) -->

<svg
   width="21.54233mm"
   height="22.543186mm"
   viewBox="0 0 21.54233 22.543186"
   version="1.1"
   id="svg1"
   inkscape:version="1.3 (0e150ed6c4, 2023-07-21)"
   sodipodi:docname="flip.svg"
   xmlns:inkscape="http://www.inkscape.org/namespaces/inkscape"
   xmlns:sodipodi="http://sodipodi.sourceforge.net/DTD/sodipodi-0.dtd"
   xmlns="http://www.w3.org/2000/svg"
   xmlns:svg="http://www.w3.org/2000/svg">
  <sodipodi:namedview
     id="namedview1"
     pagecolor="#505050"
     bordercolor="#ffffff"
     borderopacity="1"
     inkscape:showpageshadow="0"
     inkscape:pageopacity="0"
     inkscape:pagecheckerboard="1"
     inkscape:deskcolor="#505050"
     inkscape:document-units="mm"
     inkscape:zoom="2.1089995"
     inkscape:cx="92.93506"
     inkscape:cy="57.610254"
     inkscape:window-width="1920"
     inkscape:window-height="1051"
     inkscape:window-x="-9"
     inkscape:window-y="-9"
     inkscape:window-maximized="1"
     inkscape:current-layer="layer1" />
  <defs
     id="defs1" />
  <g
     inkscape:label="Layer 1"
     inkscape:groupmode="layer"
     id="layer1"
     transform="translate(-123.33036,-166.60578)">
    <path
       style="fill:#000000;fill-opacity:1;stroke-width:0"
       id="path3"
       d="m 126.4332,188.69423 c 2.75277,0.20029 5.51456,0.26161 8.2719,0.3826 0.69196,0.0321 1.99521,0.1351 2.7174,0.0165 0.39131,-0.0642 0.77193,-0.19309 1.13938,-0.34221 0.34226,-0.13891 0.68125,-0.30016 0.9797,-0.51779 0.83229,-0.60693 0.93512,-0.98533 1.45948,-1.85894 0.14802,-0.48695 0.34174,-0.9623 0.44407,-1.46087 0.25495,-1.24208 0.30136,-2.70695 0.26481,-3.96013 -0.0396,-1.35776 -0.19631,-2.95793 -0.51234,-4.28557 -0.14993,-0.62984 -0.38896,-1.23507 -0.58343,-1.8526 -0.23241,-0.51224 -0.43513,-1.03902 -0.69724,-1.53671 -0.62061,-1.17844 -1.54459,-2.42571 -2.5868,-3.27608 -0.13367,-0.10906 -0.27965,-0.20208 -0.41947,-0.30312 0,0 -3.53762,-1.37853 -3.53762,-1.37853 v 0 c 0.16526,0.0963 0.3372,0.18198 0.49578,0.28893 1.18357,0.79817 2.25971,2.06741 2.98563,3.27905 0.2963,0.49455 0.53045,1.02377 0.79567,1.53566 0.22003,0.6121 0.49087,1.20825 0.6601,1.83629 0.6463,2.39854 0.7509,5.57325 0.11379,7.9881 -0.12136,0.45999 -0.33047,0.89222 -0.4957,1.33833 -0.52475,0.81481 -0.60077,1.11488 -1.39901,1.67231 -1.36008,0.94978 -2.97772,0.85779 -4.54905,0.82313 -1.77323,-0.045 -3.54306,-0.10107 -5.31082,-0.25844 -0.86975,-0.0774 -1.8501,-0.18114 -2.71633,-0.36253 -0.21131,-0.0442 -0.41516,-0.11865 -0.62274,-0.17798 z" />
    <path
       style="fill:#000000;fill-opacity:1;stroke-width:0"
       id="path4"
       d="m 130.12088,166.67479 c 0.65054,2.14473 0.90014,4.38877 1.15369,6.60797 0.17687,1.40518 0.30558,2.81566 0.44166,4.22516 0,0 3.16199,1.56382 3.16199,1.56382 v 0 c -0.20269,-1.41732 -0.39442,-2.83618 -0.52917,-4.26197 -0.12625,-1.37988 -0.25681,-2.75862 -0.4182,-4.13493 -0.0713,-0.60779 -0.1662,-1.21283 -0.22766,-1.82169 -0.0163,-0.16126 -0.0192,-0.32359 -0.0288,-0.48538 z" />
    <path
       style="fill:#000000;fill-opacity:1;stroke-width:0"
       id="path5"
       d="m 134.27206,168.97941 c 1.8222,-0.0117 3.64469,0.0703 5.45231,0.3121 1.50928,0.20188 2.21418,0.37278 3.68103,0.67526 0.4891,0.11385 0.9782,0.2277 1.46729,0.34155 0,0 -2.75285,-2.09023 -2.75285,-2.09023 v 0 c -0.46095,-0.0897 -0.9219,-0.1794 -1.38286,-0.2691 -1.86614,-0.33683 -3.72599,-0.64239 -5.61139,-0.85362 -0.4059,-0.0455 -2.60568,-0.25213 -3.14586,-0.32905 -0.2731,-0.0389 -0.54122,-0.10702 -0.81183,-0.16054 z" />
  </g>
</svg>
