<?xml version="1.0" encoding="UTF-8" standalone="no"?>
<!-- Created with Inkscape (http://www.inkscape.org/) -->

<svg
   width="41.460068mm"
   height="73.330795mm"
   viewBox="0 0 41.460067 73.330795"
   version="1.1"
   id="svg1"
   inkscape:version="1.3 (0e150ed6c4, 2023-07-21)"
   sodipodi:docname="fragezeichen.svg"
   xmlns:inkscape="http://www.inkscape.org/namespaces/inkscape"
   xmlns:sodipodi="http://sodipodi.sourceforge.net/DTD/sodipodi-0.dtd"
   xmlns="http://www.w3.org/2000/svg"
   xmlns:svg="http://www.w3.org/2000/svg">
  <sodipodi:namedview
     id="namedview1"
     pagecolor="#505050"
     bordercolor="#ffffff"
     borderopacity="1"
     inkscape:showpageshadow="0"
     inkscape:pageopacity="0"
     inkscape:pagecheckerboard="1"
     inkscape:deskcolor="#505050"
     inkscape:document-units="mm"
     inkscape:zoom="0.74564394"
     inkscape:cx="92.537465"
     inkscape:cy="38.221996"
     inkscape:window-width="1920"
     inkscape:window-height="1051"
     inkscape:window-x="-9"
     inkscape:window-y="-9"
     inkscape:window-maximized="1"
     inkscape:current-layer="layer1" />
  <defs
     id="defs1" />
  <g
     inkscape:label="Layer 1"
     inkscape:groupmode="layer"
     id="layer1"
     transform="translate(-80.630122,-138.24027)">
    <path
       style="fill:#000000;stroke-width:0"
       id="path1"
       d="m 87.280752,153.53749 c -0.07544,-2.70558 0.804619,-5.42721 2.183116,-7.73976 0.349078,-0.58561 0.783802,-1.11572 1.1757,-1.67358 1.022604,-1.17739 2.068179,-2.47971 3.547346,-3.11705 0.738028,-0.318 2.108739,-0.57777 2.911022,-0.57013 0.602456,0.006 1.198023,0.12917 1.797034,0.19376 2.00821,0.49258 2.13863,0.42193 4.11391,1.37241 0.76129,0.36633 1.5361,0.72601 2.222,1.21927 0.30492,0.21928 -1.24321,-0.71091 -1.05954,-0.3833 0.38645,0.68935 1.20765,1.02555 1.74464,1.60537 0.50538,0.54569 0.91457,1.17314 1.37185,1.75972 0.20721,0.69997 0.59957,1.37024 0.62163,2.0999 0.066,2.18221 -1.16996,4.06852 -2.36901,5.75071 -2.58179,3.62209 -5.96105,6.54033 -9.275708,9.45335 -3.666567,3.23506 -8.016454,5.59782 -11.679968,8.8325 -0.468182,0.41338 -0.898019,0.86826 -1.34703,1.30239 -1.879651,2.025 -2.675089,4.31161 -2.603164,7.06382 0.01243,0.47585 0.0878,0.94796 0.131707,1.42194 0.112318,0.44508 0.15572,0.91349 0.336954,1.33523 0.668129,1.55477 2.139683,2.60268 3.540689,3.4366 4.668353,2.77876 3.542308,2.20215 6.845326,3.67295 3.164581,1.252 6.590385,1.86696 9.999414,1.66248 0.76274,-0.0458 1.51839,-0.17299 2.27758,-0.25948 2.87978,-0.45864 5.76709,-0.97181 8.57099,-1.78827 1.31654,-0.38336 1.95278,-0.63744 3.21468,-1.09759 1.46745,-0.55296 3.08749,-1.06934 4.2493,-2.1867 0.68692,-0.66064 0.81047,-1.0216 1.27949,-1.84762 0.53918,-1.25175 0.75912,-2.59525 1.00948,-3.92419 0,0 -3.36914,-1.79658 -3.36914,-1.79658 v 0 c -0.24286,1.28512 -0.44652,2.58839 -0.97728,3.79584 -0.1813,0.31406 -0.33353,0.64681 -0.5439,0.94217 -1.12505,1.57955 -3.06525,2.23261 -4.79276,2.89795 -3.76221,1.40574 -7.66948,2.3489 -11.65595,2.86139 -0.759063,0.0701 -1.515589,0.17768 -2.277182,0.21027 -3.392196,0.14514 -6.775338,-0.49332 -9.905521,-1.78829 -0.623718,-0.28912 -1.184047,-0.88969 -1.871151,-0.86736 -0.565799,0.0184 1.804077,1.3242 1.451909,0.88099 -0.372007,-0.46819 -1.031939,-0.60826 -1.515132,-0.96055 -1.389829,-1.01333 -2.102207,-1.78079 -2.450599,-3.48335 -0.0553,-0.46082 -0.143537,-0.91886 -0.165886,-1.38244 -0.127823,-2.65156 0.655635,-4.85587 2.421339,-6.83344 0.433086,-0.4318 0.847641,-0.88301 1.299253,-1.2954 3.588099,-3.27642 7.855823,-5.72087 11.455328,-8.98729 3.295302,-2.97874 6.687902,-5.94357 9.375362,-9.51206 1.33822,-1.77694 2.66455,-3.58534 2.68579,-5.91661 0.007,-0.76681 -0.37592,-1.48689 -0.56388,-2.23034 -0.99363,-1.32745 -1.71585,-2.50154 -3.10543,-3.4852 -1.67172,-1.18338 -3.4507,-2.20872 -5.20972,-3.25796 -2.01449,-1.20163 -4.170536,-2.15954 -6.499629,-2.53022 -0.627372,-0.0509 -1.252802,-0.16458 -1.882122,-0.15259 -0.846158,0.0161 -2.248976,0.34489 -3.009579,0.70211 -1.495904,0.70255 -2.530613,2.05956 -3.557456,3.28952 -0.397248,0.57505 -0.835572,1.1238 -1.191746,1.72516 -1.381043,2.33174 -2.321499,5.07146 -2.483604,7.78131 z" />
    <path
       style="fill:#000000;stroke-width:0"
       id="path2"
       d="m 104.85271,206.12587 c -0.90652,0.27612 -1.90769,0.89085 -1.73255,2.00929 0.0315,0.20126 0.15115,0.37836 0.22672,0.56754 1.43088,1.47939 0.61509,0.71796 4.32589,2.71779 0.17824,0.096 0.38731,0.16475 0.5891,0.14808 0.82849,-0.0684 1.29448,-0.85829 1.69346,-1.46096 0.52089,-1.08146 1.00797,-2.34639 0.36748,-3.46923 0,0 -3.63646,-1.55486 -3.63646,-1.55486 v 0 c 0.90977,0.80015 0.33866,2.13415 -0.0917,3.05139 -0.34874,0.50087 -0.70702,1.12662 -1.43436,1.03243 -0.1904,-0.0247 -0.699,-0.31064 -0.53766,-0.20656 0.91193,0.58823 1.86526,1.10966 2.79789,1.66449 -0.16179,-0.10785 -0.32357,-0.21569 -0.48536,-0.32354 -0.10498,-0.12594 -0.25231,-0.2263 -0.31495,-0.37782 -0.38139,-0.9225 0.78782,-1.39915 1.46084,-1.51329 z" />
    <path
       style="fill:#000000;stroke-width:0"
       id="path3"
       d="m 96.111916,15.462614 c -0.348252,4.513438 -0.06074,9.043124 0.143227,13.556862 0.227269,2.119463 0.31428,3.510357 0.835628,5.642284 0.323628,1.323391 0.754012,2.618526 1.154607,3.920686 0.985896,3.204699 1.648191,5.115788 2.704032,8.262678 0,0 3.12324,1.464527 3.12324,1.464527 v 0 c -1.27871,-3.713308 -1.56342,-4.408307 -2.69232,-8.238358 -0.37506,-1.272447 -0.76886,-2.541545 -1.06346,-3.834989 -0.412467,-1.810928 -0.579527,-3.72218 -0.784378,-5.566085 -0.212654,-4.441848 -0.589174,-8.924564 0.05678,-13.348453 z" />
    <path
       style="fill:#000000;stroke-width:0"
       id="path4"
       d="m 109.23056,53.901207 c -0.28926,0.08983 -0.59593,0.135922 -0.86778,0.269494 -1.70422,0.837393 -3.01946,2.484377 -3.91612,4.108125 -0.25989,0.470622 -0.46148,0.971158 -0.69222,1.456737 -0.14467,0.59241 -0.36163,1.171723 -0.43402,1.777233 -0.20274,1.695849 0.0299,3.691294 0.87642,5.201406 0.24342,0.434216 0.49802,0.900087 0.90318,1.189289 1.41862,1.012608 2.9987,1.77741 4.49805,2.666117 0.53117,-0.02704 1.07917,0.05427 1.5935,-0.08112 2.43764,-0.641636 4.12822,-3.018976 5.06617,-5.205926 0.21543,-0.502317 0.3467,-1.036693 0.52005,-1.555038 0.1956,-1.323417 0.55962,-3.250896 -0.31188,-4.447519 -0.1738,-0.238649 -0.43173,-0.402815 -0.6476,-0.604221 0,0 -3.6088,-1.444091 -3.6088,-1.444091 v 0 c 0.23562,0.152501 0.50837,0.25907 0.70686,0.457505 1.0043,1.004032 0.67862,2.985727 0.54119,4.21401 -0.1563,0.504264 -0.26775,1.024684 -0.46891,1.512793 -0.85276,2.069269 -2.49262,4.415956 -4.86979,4.839962 -0.48703,0.08687 -0.98793,-0.05437 -1.48189,-0.08156 0.65483,0.407205 1.19896,1.12897 1.96448,1.221616 0.483,0.05845 -0.69663,-0.690491 -0.95935,-1.099973 -0.90613,-1.412272 -1.19431,-3.349678 -1.00913,-4.993593 0.0653,-0.579374 0.28011,-1.131937 0.42017,-1.697908 0.22286,-0.471773 0.41563,-0.958974 0.66859,-1.415319 0.85354,-1.539801 2.15016,-3.146251 3.84033,-3.818308 0.2719,-0.10812 0.57176,-0.124831 0.85763,-0.187243 z" />
  </g>
</svg>
